<mxfile host="app.diagrams.net" modified="2024-02-14T15:15:51.894Z" agent="Mozilla/5.0 (Windows NT 10.0; Win64; x64) AppleWebKit/537.36 (KHTML, like Gecko) Chrome/121.0.0.0 Safari/537.36" etag="IpuPzram25QWhfVNQTWV" version="23.1.1" type="device">
  <diagram name="Page-1" id="JpAXCu7zVkkuIFzoFmwY">
    <mxGraphModel dx="2759" dy="2049" grid="1" gridSize="10" guides="1" tooltips="1" connect="1" arrows="1" fold="1" page="1" pageScale="1" pageWidth="850" pageHeight="1100" math="0" shadow="0">
      <root>
        <mxCell id="0" />
        <mxCell id="1" parent="0" />
        <mxCell id="9h0jhmqFwY3-lsfX3baY-112" value="" style="rounded=0;whiteSpace=wrap;html=1;" parent="1" vertex="1">
          <mxGeometry x="-780" y="-990" width="1640" height="920" as="geometry" />
        </mxCell>
        <mxCell id="9h0jhmqFwY3-lsfX3baY-39" style="edgeStyle=orthogonalEdgeStyle;rounded=0;orthogonalLoop=1;jettySize=auto;html=1;" parent="1" source="9h0jhmqFwY3-lsfX3baY-1" target="9h0jhmqFwY3-lsfX3baY-38" edge="1">
          <mxGeometry relative="1" as="geometry" />
        </mxCell>
        <mxCell id="9h0jhmqFwY3-lsfX3baY-1" value="" style="ellipse;html=1;shape=startState;fillColor=#000000;strokeColor=#000000;" parent="1" vertex="1">
          <mxGeometry x="55" y="-960" width="30" height="30" as="geometry" />
        </mxCell>
        <mxCell id="9h0jhmqFwY3-lsfX3baY-3" value="" style="ellipse;html=1;shape=endState;fillColor=#000000;strokeColor=#000000;" parent="1" vertex="1">
          <mxGeometry x="225" y="-860" width="30" height="30" as="geometry" />
        </mxCell>
        <mxCell id="9h0jhmqFwY3-lsfX3baY-43" style="edgeStyle=orthogonalEdgeStyle;rounded=0;orthogonalLoop=1;jettySize=auto;html=1;entryX=0.5;entryY=0;entryDx=0;entryDy=0;" parent="1" target="9h0jhmqFwY3-lsfX3baY-14" edge="1">
          <mxGeometry relative="1" as="geometry">
            <mxPoint x="70" y="-770" as="sourcePoint" />
            <Array as="points">
              <mxPoint x="70" y="-730" />
              <mxPoint x="-250" y="-730" />
            </Array>
          </mxGeometry>
        </mxCell>
        <mxCell id="9h0jhmqFwY3-lsfX3baY-44" style="edgeStyle=orthogonalEdgeStyle;rounded=0;orthogonalLoop=1;jettySize=auto;html=1;exitX=0.5;exitY=1;exitDx=0;exitDy=0;entryX=0.5;entryY=0;entryDx=0;entryDy=0;" parent="1" source="9h0jhmqFwY3-lsfX3baY-9" target="9h0jhmqFwY3-lsfX3baY-13" edge="1">
          <mxGeometry relative="1" as="geometry">
            <mxPoint x="70" y="-730" as="sourcePoint" />
            <Array as="points">
              <mxPoint x="70" y="-730" />
              <mxPoint x="-90" y="-730" />
            </Array>
          </mxGeometry>
        </mxCell>
        <mxCell id="9h0jhmqFwY3-lsfX3baY-45" style="edgeStyle=orthogonalEdgeStyle;rounded=0;orthogonalLoop=1;jettySize=auto;html=1;exitX=0.5;exitY=1;exitDx=0;exitDy=0;" parent="1" source="9h0jhmqFwY3-lsfX3baY-9" target="9h0jhmqFwY3-lsfX3baY-11" edge="1">
          <mxGeometry relative="1" as="geometry">
            <mxPoint x="70" y="-730" as="sourcePoint" />
          </mxGeometry>
        </mxCell>
        <mxCell id="9h0jhmqFwY3-lsfX3baY-46" style="edgeStyle=orthogonalEdgeStyle;rounded=0;orthogonalLoop=1;jettySize=auto;html=1;exitX=0.5;exitY=1;exitDx=0;exitDy=0;" parent="1" source="9h0jhmqFwY3-lsfX3baY-9" target="9h0jhmqFwY3-lsfX3baY-15" edge="1">
          <mxGeometry relative="1" as="geometry">
            <mxPoint x="70" y="-730" as="sourcePoint" />
            <Array as="points">
              <mxPoint x="70" y="-730" />
              <mxPoint x="230" y="-730" />
            </Array>
          </mxGeometry>
        </mxCell>
        <mxCell id="9h0jhmqFwY3-lsfX3baY-47" style="edgeStyle=orthogonalEdgeStyle;rounded=0;orthogonalLoop=1;jettySize=auto;html=1;exitX=0.5;exitY=1;exitDx=0;exitDy=0;" parent="1" source="9h0jhmqFwY3-lsfX3baY-9" target="9h0jhmqFwY3-lsfX3baY-20" edge="1">
          <mxGeometry relative="1" as="geometry">
            <mxPoint x="70" y="-730" as="sourcePoint" />
            <Array as="points">
              <mxPoint x="70" y="-730" />
              <mxPoint x="390" y="-730" />
            </Array>
          </mxGeometry>
        </mxCell>
        <mxCell id="9h0jhmqFwY3-lsfX3baY-9" value="Display action" style="rounded=1;whiteSpace=wrap;html=1;arcSize=40;fontColor=#000000;fillColor=#ffffff;strokeColor=#000000;" parent="1" vertex="1">
          <mxGeometry x="10" y="-810" width="120" height="40" as="geometry" />
        </mxCell>
        <mxCell id="9h0jhmqFwY3-lsfX3baY-106" value="" style="edgeStyle=orthogonalEdgeStyle;rounded=0;orthogonalLoop=1;jettySize=auto;html=1;" parent="1" source="9h0jhmqFwY3-lsfX3baY-11" target="9h0jhmqFwY3-lsfX3baY-103" edge="1">
          <mxGeometry relative="1" as="geometry" />
        </mxCell>
        <mxCell id="9h0jhmqFwY3-lsfX3baY-11" value="Update save job" style="rounded=1;whiteSpace=wrap;html=1;arcSize=40;fontColor=#000000;fillColor=#ffffff;strokeColor=#000000;" parent="1" vertex="1">
          <mxGeometry x="10" y="-710" width="120" height="40" as="geometry" />
        </mxCell>
        <mxCell id="9h0jhmqFwY3-lsfX3baY-53" style="edgeStyle=orthogonalEdgeStyle;rounded=0;orthogonalLoop=1;jettySize=auto;html=1;" parent="1" source="9h0jhmqFwY3-lsfX3baY-13" edge="1">
          <mxGeometry relative="1" as="geometry">
            <mxPoint x="-90" y="-619.5" as="targetPoint" />
          </mxGeometry>
        </mxCell>
        <mxCell id="9h0jhmqFwY3-lsfX3baY-13" value="Create save job" style="rounded=1;whiteSpace=wrap;html=1;arcSize=40;fontColor=#000000;fillColor=#ffffff;strokeColor=#000000;" parent="1" vertex="1">
          <mxGeometry x="-150" y="-709.5" width="120" height="40" as="geometry" />
        </mxCell>
        <mxCell id="9h0jhmqFwY3-lsfX3baY-28" style="edgeStyle=orthogonalEdgeStyle;rounded=0;orthogonalLoop=1;jettySize=auto;html=1;strokeColor=#000000;" parent="1" source="9h0jhmqFwY3-lsfX3baY-14" target="9h0jhmqFwY3-lsfX3baY-27" edge="1">
          <mxGeometry relative="1" as="geometry" />
        </mxCell>
        <mxCell id="9h0jhmqFwY3-lsfX3baY-14" value="Select language" style="rounded=1;whiteSpace=wrap;html=1;arcSize=40;fontColor=#000000;fillColor=#ffffff;strokeColor=#000000;" parent="1" vertex="1">
          <mxGeometry x="-310" y="-710" width="120" height="40" as="geometry" />
        </mxCell>
        <mxCell id="9h0jhmqFwY3-lsfX3baY-15" value="Delete save job" style="rounded=1;whiteSpace=wrap;html=1;arcSize=40;fontColor=#000000;fillColor=#ffffff;strokeColor=#000000;" parent="1" vertex="1">
          <mxGeometry x="170" y="-710" width="120" height="40" as="geometry" />
        </mxCell>
        <mxCell id="9h0jhmqFwY3-lsfX3baY-110" value="" style="edgeStyle=orthogonalEdgeStyle;rounded=0;orthogonalLoop=1;jettySize=auto;html=1;" parent="1" source="9h0jhmqFwY3-lsfX3baY-20" target="9h0jhmqFwY3-lsfX3baY-104" edge="1">
          <mxGeometry relative="1" as="geometry" />
        </mxCell>
        <mxCell id="9h0jhmqFwY3-lsfX3baY-20" value="Launch save job" style="rounded=1;whiteSpace=wrap;html=1;arcSize=40;fontColor=#000000;fillColor=#ffffff;strokeColor=#000000;" parent="1" vertex="1">
          <mxGeometry x="330" y="-709.5" width="120" height="40" as="geometry" />
        </mxCell>
        <mxCell id="9h0jhmqFwY3-lsfX3baY-26" style="edgeStyle=orthogonalEdgeStyle;rounded=0;orthogonalLoop=1;jettySize=auto;html=1;strokeColor=#000000;" parent="1" source="9h0jhmqFwY3-lsfX3baY-25" target="9h0jhmqFwY3-lsfX3baY-3" edge="1">
          <mxGeometry relative="1" as="geometry" />
        </mxCell>
        <mxCell id="9h0jhmqFwY3-lsfX3baY-25" value="Close application" style="html=1;shape=mxgraph.infographic.ribbonSimple;notch1=20;notch2=0;align=center;verticalAlign=middle;fontSize=14;fontStyle=0;fillColor=#FFFFFF;flipH=0;spacingRight=0;spacingLeft=14;whiteSpace=wrap;strokeColor=#000000;" parent="1" vertex="1">
          <mxGeometry x="180" y="-940" width="120" height="40" as="geometry" />
        </mxCell>
        <mxCell id="9h0jhmqFwY3-lsfX3baY-36" value="" style="edgeStyle=orthogonalEdgeStyle;rounded=0;orthogonalLoop=1;jettySize=auto;html=1;strokeColor=#000000;" parent="1" source="9h0jhmqFwY3-lsfX3baY-27" target="9h0jhmqFwY3-lsfX3baY-35" edge="1">
          <mxGeometry relative="1" as="geometry" />
        </mxCell>
        <mxCell id="9h0jhmqFwY3-lsfX3baY-27" value="Change language" style="rounded=1;whiteSpace=wrap;html=1;arcSize=40;fontColor=#000000;fillColor=#ffffff;strokeColor=#000000;" parent="1" vertex="1">
          <mxGeometry x="-310" y="-631" width="120" height="40" as="geometry" />
        </mxCell>
        <mxCell id="9h0jhmqFwY3-lsfX3baY-37" style="edgeStyle=orthogonalEdgeStyle;rounded=0;orthogonalLoop=1;jettySize=auto;html=1;entryX=0;entryY=0.5;entryDx=0;entryDy=0;strokeColor=#000000;exitX=0.5;exitY=1;exitDx=0;exitDy=0;" parent="1" source="9h0jhmqFwY3-lsfX3baY-35" target="9h0jhmqFwY3-lsfX3baY-9" edge="1">
          <mxGeometry relative="1" as="geometry">
            <Array as="points">
              <mxPoint x="-250" y="-260" />
              <mxPoint x="-720" y="-260" />
              <mxPoint x="-720" y="-790" />
            </Array>
          </mxGeometry>
        </mxCell>
        <mxCell id="9h0jhmqFwY3-lsfX3baY-35" value="Update configuration file" style="rounded=1;whiteSpace=wrap;html=1;arcSize=40;fontColor=#000000;fillColor=#ffffff;strokeColor=#000000;" parent="1" vertex="1">
          <mxGeometry x="-310" y="-551" width="120" height="40" as="geometry" />
        </mxCell>
        <mxCell id="9h0jhmqFwY3-lsfX3baY-40" style="edgeStyle=orthogonalEdgeStyle;rounded=0;orthogonalLoop=1;jettySize=auto;html=1;" parent="1" source="9h0jhmqFwY3-lsfX3baY-38" target="9h0jhmqFwY3-lsfX3baY-9" edge="1">
          <mxGeometry relative="1" as="geometry" />
        </mxCell>
        <mxCell id="9h0jhmqFwY3-lsfX3baY-38" value="Launch application" style="html=1;shape=mxgraph.infographic.ribbonSimple;notch1=20;notch2=0;align=center;verticalAlign=middle;fontSize=14;fontStyle=0;fillColor=#FFFFFF;flipH=0;spacingRight=0;spacingLeft=14;whiteSpace=wrap;strokeColor=#000000;" parent="1" vertex="1">
          <mxGeometry x="10" y="-890" width="120" height="40" as="geometry" />
        </mxCell>
        <mxCell id="9h0jhmqFwY3-lsfX3baY-98" style="edgeStyle=orthogonalEdgeStyle;rounded=0;orthogonalLoop=1;jettySize=auto;html=1;" parent="1" source="9h0jhmqFwY3-lsfX3baY-48" target="9h0jhmqFwY3-lsfX3baY-89" edge="1">
          <mxGeometry relative="1" as="geometry">
            <Array as="points">
              <mxPoint x="470" y="-460" />
              <mxPoint x="550" y="-460" />
            </Array>
          </mxGeometry>
        </mxCell>
        <mxCell id="9h0jhmqFwY3-lsfX3baY-48" value="&lt;font style=&quot;font-size: 10px;&quot;&gt;job_done &amp;lt;&lt;br&gt;job_to_do ?&lt;/font&gt;" style="rhombus;whiteSpace=wrap;html=1;fontColor=#000000;fillColor=#ffffff;strokeColor=#000000;" parent="1" vertex="1">
          <mxGeometry x="420" y="-550" width="100" height="60" as="geometry" />
        </mxCell>
        <mxCell id="9h0jhmqFwY3-lsfX3baY-49" value="no" style="edgeStyle=orthogonalEdgeStyle;rounded=0;orthogonalLoop=1;jettySize=auto;html=1;entryX=1;entryY=0.5;entryDx=0;entryDy=0;" parent="1" source="9h0jhmqFwY3-lsfX3baY-48" target="9h0jhmqFwY3-lsfX3baY-9" edge="1">
          <mxGeometry x="-0.9678" y="9" relative="1" as="geometry">
            <mxPoint x="500" y="-561" as="targetPoint" />
            <Array as="points">
              <mxPoint x="550" y="-521" />
              <mxPoint x="550" y="-790" />
            </Array>
            <mxPoint as="offset" />
          </mxGeometry>
        </mxCell>
        <mxCell id="9h0jhmqFwY3-lsfX3baY-59" value="Write log" style="rounded=1;whiteSpace=wrap;html=1;arcSize=40;fontColor=#000000;fillColor=#ffffff;strokeColor=#000000;" parent="1" vertex="1">
          <mxGeometry x="390" y="-370" width="120" height="40" as="geometry" />
        </mxCell>
        <mxCell id="9h0jhmqFwY3-lsfX3baY-69" style="edgeStyle=orthogonalEdgeStyle;rounded=0;orthogonalLoop=1;jettySize=auto;html=1;" parent="1" source="9h0jhmqFwY3-lsfX3baY-66" target="9h0jhmqFwY3-lsfX3baY-68" edge="1">
          <mxGeometry relative="1" as="geometry" />
        </mxCell>
        <mxCell id="9h0jhmqFwY3-lsfX3baY-66" value="Enter new save job data" style="rounded=1;whiteSpace=wrap;html=1;arcSize=40;fontColor=#000000;fillColor=#ffffff;strokeColor=#000000;" parent="1" vertex="1">
          <mxGeometry x="-150" y="-620" width="120" height="40" as="geometry" />
        </mxCell>
        <mxCell id="9h0jhmqFwY3-lsfX3baY-68" value="Save new job" style="rounded=1;whiteSpace=wrap;html=1;arcSize=40;fontColor=#000000;fillColor=#ffffff;strokeColor=#000000;" parent="1" vertex="1">
          <mxGeometry x="-150" y="-540" width="120" height="40" as="geometry" />
        </mxCell>
        <mxCell id="9h0jhmqFwY3-lsfX3baY-107" value="" style="edgeStyle=orthogonalEdgeStyle;rounded=0;orthogonalLoop=1;jettySize=auto;html=1;" parent="1" source="9h0jhmqFwY3-lsfX3baY-71" target="9h0jhmqFwY3-lsfX3baY-102" edge="1">
          <mxGeometry relative="1" as="geometry" />
        </mxCell>
        <mxCell id="9h0jhmqFwY3-lsfX3baY-71" value="Launch save job" style="rounded=1;whiteSpace=wrap;html=1;arcSize=40;fontColor=#000000;fillColor=#ffffff;strokeColor=#000000;" parent="1" vertex="1">
          <mxGeometry x="170" y="-630.5" width="120" height="40" as="geometry" />
        </mxCell>
        <mxCell id="9h0jhmqFwY3-lsfX3baY-77" style="edgeStyle=orthogonalEdgeStyle;rounded=0;orthogonalLoop=1;jettySize=auto;html=1;entryX=0.5;entryY=0;entryDx=0;entryDy=0;exitX=0;exitY=0;exitDx=60;exitDy=40;exitPerimeter=0;" parent="1" source="9h0jhmqFwY3-lsfX3baY-103" target="9h0jhmqFwY3-lsfX3baY-73" edge="1">
          <mxGeometry relative="1" as="geometry">
            <mxPoint x="70" y="-591" as="sourcePoint" />
          </mxGeometry>
        </mxCell>
        <mxCell id="9h0jhmqFwY3-lsfX3baY-79" style="edgeStyle=orthogonalEdgeStyle;rounded=0;orthogonalLoop=1;jettySize=auto;html=1;" parent="1" source="9h0jhmqFwY3-lsfX3baY-73" target="9h0jhmqFwY3-lsfX3baY-78" edge="1">
          <mxGeometry relative="1" as="geometry" />
        </mxCell>
        <mxCell id="9h0jhmqFwY3-lsfX3baY-73" value="Update job data" style="rounded=1;whiteSpace=wrap;html=1;arcSize=40;fontColor=#000000;fillColor=#ffffff;strokeColor=#000000;" parent="1" vertex="1">
          <mxGeometry x="10" y="-551" width="120" height="40" as="geometry" />
        </mxCell>
        <mxCell id="9h0jhmqFwY3-lsfX3baY-78" value="Save updated job data" style="rounded=1;whiteSpace=wrap;html=1;arcSize=40;fontColor=#000000;fillColor=#ffffff;strokeColor=#000000;" parent="1" vertex="1">
          <mxGeometry x="10" y="-470" width="120" height="40" as="geometry" />
        </mxCell>
        <mxCell id="9h0jhmqFwY3-lsfX3baY-80" style="edgeStyle=orthogonalEdgeStyle;rounded=0;orthogonalLoop=1;jettySize=auto;html=1;entryX=0.5;entryY=0;entryDx=0;entryDy=0;" parent="1" source="9h0jhmqFwY3-lsfX3baY-15" target="9h0jhmqFwY3-lsfX3baY-71" edge="1">
          <mxGeometry relative="1" as="geometry">
            <mxPoint x="230" y="-640" as="targetPoint" />
          </mxGeometry>
        </mxCell>
        <mxCell id="9h0jhmqFwY3-lsfX3baY-88" style="edgeStyle=orthogonalEdgeStyle;rounded=0;orthogonalLoop=1;jettySize=auto;html=1;entryX=0;entryY=0.5;entryDx=0;entryDy=0;" parent="1" source="9h0jhmqFwY3-lsfX3baY-85" target="9h0jhmqFwY3-lsfX3baY-9" edge="1">
          <mxGeometry relative="1" as="geometry">
            <Array as="points">
              <mxPoint x="230" y="-140" />
              <mxPoint x="-720" y="-140" />
              <mxPoint x="-720" y="-790" />
            </Array>
          </mxGeometry>
        </mxCell>
        <mxCell id="9h0jhmqFwY3-lsfX3baY-85" value="Delete job data" style="rounded=1;whiteSpace=wrap;html=1;arcSize=40;fontColor=#000000;fillColor=#ffffff;strokeColor=#000000;" parent="1" vertex="1">
          <mxGeometry x="170" y="-470.5" width="120" height="40" as="geometry" />
        </mxCell>
        <mxCell id="9h0jhmqFwY3-lsfX3baY-91" style="edgeStyle=orthogonalEdgeStyle;rounded=0;orthogonalLoop=1;jettySize=auto;html=1;entryX=0.5;entryY=0;entryDx=0;entryDy=0;" parent="1" source="9h0jhmqFwY3-lsfX3baY-89" target="9h0jhmqFwY3-lsfX3baY-59" edge="1">
          <mxGeometry relative="1" as="geometry">
            <Array as="points">
              <mxPoint x="550" y="-401" />
              <mxPoint x="450" y="-401" />
            </Array>
          </mxGeometry>
        </mxCell>
        <mxCell id="9h0jhmqFwY3-lsfX3baY-89" value="" style="shape=line;html=1;strokeWidth=6;strokeColor=#000000;" parent="1" vertex="1">
          <mxGeometry x="375" y="-430" width="405" height="10" as="geometry" />
        </mxCell>
        <mxCell id="9h0jhmqFwY3-lsfX3baY-96" style="edgeStyle=orthogonalEdgeStyle;rounded=0;orthogonalLoop=1;jettySize=auto;html=1;entryX=0;entryY=0.5;entryDx=0;entryDy=0;" parent="1" source="9h0jhmqFwY3-lsfX3baY-92" target="9h0jhmqFwY3-lsfX3baY-48" edge="1">
          <mxGeometry relative="1" as="geometry">
            <mxPoint x="460" y="-309.4999999999999" as="sourcePoint" />
            <mxPoint x="410" y="-520" as="targetPoint" />
            <Array as="points">
              <mxPoint x="550" y="-140" />
              <mxPoint x="310" y="-140" />
              <mxPoint x="310" y="-520" />
            </Array>
          </mxGeometry>
        </mxCell>
        <mxCell id="9h0jhmqFwY3-lsfX3baY-92" value="" style="shape=line;html=1;strokeWidth=6;strokeColor=#000000;" parent="1" vertex="1">
          <mxGeometry x="375" y="-170" width="405" height="10" as="geometry" />
        </mxCell>
        <mxCell id="9h0jhmqFwY3-lsfX3baY-108" value="" style="edgeStyle=orthogonalEdgeStyle;rounded=0;orthogonalLoop=1;jettySize=auto;html=1;" parent="1" source="9h0jhmqFwY3-lsfX3baY-102" target="9h0jhmqFwY3-lsfX3baY-85" edge="1">
          <mxGeometry relative="1" as="geometry" />
        </mxCell>
        <mxCell id="9h0jhmqFwY3-lsfX3baY-102" value="&lt;font style=&quot;font-size: 12px;&quot;&gt;Select job to&lt;br&gt;delete&lt;/font&gt;" style="html=1;shape=mxgraph.infographic.ribbonSimple;notch1=20;notch2=0;align=center;verticalAlign=middle;fontSize=14;fontStyle=0;fillColor=#FFFFFF;flipH=0;spacingRight=0;spacingLeft=14;whiteSpace=wrap;strokeColor=#000000;" parent="1" vertex="1">
          <mxGeometry x="170" y="-551" width="120" height="40" as="geometry" />
        </mxCell>
        <mxCell id="9h0jhmqFwY3-lsfX3baY-103" value="&lt;font style=&quot;font-size: 12px;&quot;&gt;Select job to update&lt;/font&gt;" style="html=1;shape=mxgraph.infographic.ribbonSimple;notch1=20;notch2=0;align=center;verticalAlign=middle;fontSize=14;fontStyle=0;fillColor=#FFFFFF;flipH=0;spacingRight=0;spacingLeft=14;whiteSpace=wrap;strokeColor=#000000;" parent="1" vertex="1">
          <mxGeometry x="10" y="-631" width="120" height="40" as="geometry" />
        </mxCell>
        <mxCell id="9h0jhmqFwY3-lsfX3baY-109" value="" style="edgeStyle=orthogonalEdgeStyle;rounded=0;orthogonalLoop=1;jettySize=auto;html=1;" parent="1" source="9h0jhmqFwY3-lsfX3baY-104" target="9h0jhmqFwY3-lsfX3baY-48" edge="1">
          <mxGeometry relative="1" as="geometry" />
        </mxCell>
        <mxCell id="9h0jhmqFwY3-lsfX3baY-104" value="&lt;font style=&quot;font-size: 12px;&quot;&gt;Select job to execute&lt;/font&gt;" style="html=1;shape=mxgraph.infographic.ribbonSimple;notch1=20;notch2=0;align=center;verticalAlign=middle;fontSize=14;fontStyle=0;fillColor=#FFFFFF;flipH=0;spacingRight=0;spacingLeft=14;whiteSpace=wrap;strokeColor=#000000;" parent="1" vertex="1">
          <mxGeometry x="410" y="-630.5" width="120" height="40" as="geometry" />
        </mxCell>
        <mxCell id="pZc01ctpjDw9j7cGYiJL-1" value="Select log format" style="rounded=1;whiteSpace=wrap;html=1;arcSize=40;fontColor=#000000;fillColor=#ffffff;strokeColor=#000000;" parent="1" vertex="1">
          <mxGeometry x="-470" y="-710" width="120" height="40" as="geometry" />
        </mxCell>
        <mxCell id="pZc01ctpjDw9j7cGYiJL-4" value="" style="endArrow=classic;html=1;rounded=0;" parent="1" target="pZc01ctpjDw9j7cGYiJL-1" edge="1">
          <mxGeometry width="50" height="50" relative="1" as="geometry">
            <mxPoint x="-250" y="-730" as="sourcePoint" />
            <mxPoint x="-290" y="-710" as="targetPoint" />
            <Array as="points">
              <mxPoint x="-410" y="-730" />
            </Array>
          </mxGeometry>
        </mxCell>
        <mxCell id="pZc01ctpjDw9j7cGYiJL-5" value="Change log format" style="rounded=1;whiteSpace=wrap;html=1;arcSize=40;fontColor=#000000;fillColor=#ffffff;strokeColor=#000000;" parent="1" vertex="1">
          <mxGeometry x="-470" y="-630.5" width="120" height="40" as="geometry" />
        </mxCell>
        <mxCell id="pZc01ctpjDw9j7cGYiJL-6" value="Update configuration file&amp;nbsp;" style="rounded=1;whiteSpace=wrap;html=1;arcSize=40;fontColor=#000000;fillColor=#ffffff;strokeColor=#000000;" parent="1" vertex="1">
          <mxGeometry x="-470" y="-551" width="120" height="40" as="geometry" />
        </mxCell>
        <mxCell id="pZc01ctpjDw9j7cGYiJL-7" style="edgeStyle=orthogonalEdgeStyle;rounded=0;orthogonalLoop=1;jettySize=auto;html=1;strokeColor=#000000;" parent="1" edge="1">
          <mxGeometry relative="1" as="geometry">
            <mxPoint x="-410.28999999999996" y="-670" as="sourcePoint" />
            <mxPoint x="-410.28999999999996" y="-631" as="targetPoint" />
          </mxGeometry>
        </mxCell>
        <mxCell id="pZc01ctpjDw9j7cGYiJL-8" style="edgeStyle=orthogonalEdgeStyle;rounded=0;orthogonalLoop=1;jettySize=auto;html=1;strokeColor=#000000;" parent="1" edge="1">
          <mxGeometry relative="1" as="geometry">
            <mxPoint x="-410.41999999999996" y="-589" as="sourcePoint" />
            <mxPoint x="-410.41999999999996" y="-550" as="targetPoint" />
          </mxGeometry>
        </mxCell>
        <mxCell id="pZc01ctpjDw9j7cGYiJL-10" value="" style="endArrow=classic;html=1;rounded=0;exitX=0.5;exitY=1;exitDx=0;exitDy=0;entryX=0;entryY=0.5;entryDx=0;entryDy=0;" parent="1" edge="1" source="pZc01ctpjDw9j7cGYiJL-6">
          <mxGeometry width="50" height="50" relative="1" as="geometry">
            <mxPoint x="-400" y="-511" as="sourcePoint" />
            <mxPoint x="10" y="-790" as="targetPoint" />
            <Array as="points">
              <mxPoint x="-410" y="-300" />
              <mxPoint x="-600" y="-300" />
              <mxPoint x="-720" y="-300" />
              <mxPoint x="-720" y="-540" />
              <mxPoint x="-720" y="-790" />
            </Array>
          </mxGeometry>
        </mxCell>
        <mxCell id="lR8zC1la9WT5cy4ewVJO-1" value="Select extensions to encrypt" style="rounded=1;whiteSpace=wrap;html=1;arcSize=40;fontColor=#000000;fillColor=#ffffff;strokeColor=#000000;" vertex="1" parent="1">
          <mxGeometry x="-640" y="-709.5" width="120" height="40" as="geometry" />
        </mxCell>
        <mxCell id="lR8zC1la9WT5cy4ewVJO-2" value="Save configuration" style="rounded=1;whiteSpace=wrap;html=1;arcSize=40;fontColor=#000000;fillColor=#ffffff;strokeColor=#000000;" vertex="1" parent="1">
          <mxGeometry x="-640" y="-630" width="120" height="40" as="geometry" />
        </mxCell>
        <mxCell id="lR8zC1la9WT5cy4ewVJO-3" value="Update configuration file&amp;nbsp;" style="rounded=1;whiteSpace=wrap;html=1;arcSize=40;fontColor=#000000;fillColor=#ffffff;strokeColor=#000000;" vertex="1" parent="1">
          <mxGeometry x="-640" y="-550.5" width="120" height="40" as="geometry" />
        </mxCell>
        <mxCell id="lR8zC1la9WT5cy4ewVJO-4" style="edgeStyle=orthogonalEdgeStyle;rounded=0;orthogonalLoop=1;jettySize=auto;html=1;strokeColor=#000000;" edge="1" parent="1">
          <mxGeometry relative="1" as="geometry">
            <mxPoint x="-580.29" y="-669.5" as="sourcePoint" />
            <mxPoint x="-580.29" y="-630.5" as="targetPoint" />
          </mxGeometry>
        </mxCell>
        <mxCell id="lR8zC1la9WT5cy4ewVJO-5" style="edgeStyle=orthogonalEdgeStyle;rounded=0;orthogonalLoop=1;jettySize=auto;html=1;strokeColor=#000000;" edge="1" parent="1">
          <mxGeometry relative="1" as="geometry">
            <mxPoint x="-580.42" y="-588.5" as="sourcePoint" />
            <mxPoint x="-580.42" y="-549.5" as="targetPoint" />
          </mxGeometry>
        </mxCell>
        <mxCell id="lR8zC1la9WT5cy4ewVJO-6" value="" style="endArrow=classic;html=1;rounded=0;entryX=0.5;entryY=0;entryDx=0;entryDy=0;" edge="1" parent="1" target="lR8zC1la9WT5cy4ewVJO-1">
          <mxGeometry width="50" height="50" relative="1" as="geometry">
            <mxPoint x="-410" y="-730" as="sourcePoint" />
            <mxPoint x="-20" y="-650" as="targetPoint" />
            <Array as="points">
              <mxPoint x="-580" y="-730" />
            </Array>
          </mxGeometry>
        </mxCell>
        <mxCell id="lR8zC1la9WT5cy4ewVJO-10" value="" style="group" vertex="1" connectable="0" parent="1">
          <mxGeometry x="-720" y="-790" width="140" height="450" as="geometry" />
        </mxCell>
        <mxCell id="lR8zC1la9WT5cy4ewVJO-7" value="" style="endArrow=none;html=1;rounded=0;exitX=0.5;exitY=1;exitDx=0;exitDy=0;" edge="1" parent="lR8zC1la9WT5cy4ewVJO-10" source="lR8zC1la9WT5cy4ewVJO-3">
          <mxGeometry width="50" height="50" relative="1" as="geometry">
            <mxPoint x="933.3333333333334" y="185.86956521739134" as="sourcePoint" />
            <mxPoint x="140" y="450.0000000000001" as="targetPoint" />
          </mxGeometry>
        </mxCell>
        <mxCell id="lR8zC1la9WT5cy4ewVJO-8" value="" style="endArrow=none;html=1;rounded=0;" edge="1" parent="lR8zC1la9WT5cy4ewVJO-10">
          <mxGeometry width="50" height="50" relative="1" as="geometry">
            <mxPoint x="140" y="450.0000000000001" as="sourcePoint" />
            <mxPoint y="450.0000000000001" as="targetPoint" />
          </mxGeometry>
        </mxCell>
        <mxCell id="lR8zC1la9WT5cy4ewVJO-9" value="" style="endArrow=none;html=1;rounded=0;" edge="1" parent="lR8zC1la9WT5cy4ewVJO-10">
          <mxGeometry width="50" height="50" relative="1" as="geometry">
            <mxPoint y="450.0000000000001" as="sourcePoint" />
            <mxPoint as="targetPoint" />
          </mxGeometry>
        </mxCell>
        <mxCell id="lR8zC1la9WT5cy4ewVJO-11" value="Encrypt and copy files to destination folder" style="rounded=1;whiteSpace=wrap;html=1;arcSize=40;fontColor=#000000;fillColor=#ffffff;strokeColor=#000000;" vertex="1" parent="1">
          <mxGeometry x="582.5" y="-280" width="125" height="40" as="geometry" />
        </mxCell>
        <mxCell id="lR8zC1la9WT5cy4ewVJO-12" value="&lt;span style=&quot;font-size: 10px;&quot;&gt;extension to encrypt =! 0&lt;/span&gt;" style="rhombus;whiteSpace=wrap;html=1;fontColor=#000000;fillColor=#ffffff;strokeColor=#000000;" vertex="1" parent="1">
          <mxGeometry x="580" y="-380" width="130" height="80" as="geometry" />
        </mxCell>
        <mxCell id="lR8zC1la9WT5cy4ewVJO-14" value="" style="endArrow=classic;html=1;rounded=0;exitX=0.5;exitY=1;exitDx=0;exitDy=0;entryX=0;entryY=0.5;entryDx=0;entryDy=0;" edge="1" parent="1" source="9h0jhmqFwY3-lsfX3baY-78" target="9h0jhmqFwY3-lsfX3baY-9">
          <mxGeometry width="50" height="50" relative="1" as="geometry">
            <mxPoint x="-160" y="-440" as="sourcePoint" />
            <mxPoint x="-590" y="-780" as="targetPoint" />
            <Array as="points">
              <mxPoint x="70" y="-180" />
              <mxPoint x="-370" y="-180" />
              <mxPoint x="-720" y="-180" />
              <mxPoint x="-720" y="-470" />
              <mxPoint x="-720" y="-790" />
            </Array>
          </mxGeometry>
        </mxCell>
        <mxCell id="lR8zC1la9WT5cy4ewVJO-15" value="" style="endArrow=classic;html=1;rounded=0;exitX=0.5;exitY=1;exitDx=0;exitDy=0;entryX=0;entryY=0.5;entryDx=0;entryDy=0;" edge="1" parent="1" source="9h0jhmqFwY3-lsfX3baY-68" target="9h0jhmqFwY3-lsfX3baY-9">
          <mxGeometry width="50" height="50" relative="1" as="geometry">
            <mxPoint x="-160" y="-440" as="sourcePoint" />
            <mxPoint x="-600" y="-780" as="targetPoint" />
            <Array as="points">
              <mxPoint x="-90" y="-220" />
              <mxPoint x="-450" y="-220" />
              <mxPoint x="-720" y="-220" />
              <mxPoint x="-720" y="-490" />
              <mxPoint x="-720" y="-790" />
            </Array>
          </mxGeometry>
        </mxCell>
        <mxCell id="lR8zC1la9WT5cy4ewVJO-17" value="" style="endArrow=classic;html=1;rounded=0;exitX=0.5;exitY=1;exitDx=0;exitDy=0;entryX=0.5;entryY=0;entryDx=0;entryDy=0;" edge="1" parent="1" source="lR8zC1la9WT5cy4ewVJO-12" target="lR8zC1la9WT5cy4ewVJO-11">
          <mxGeometry width="50" height="50" relative="1" as="geometry">
            <mxPoint x="75" y="-520" as="sourcePoint" />
            <mxPoint x="125" y="-570" as="targetPoint" />
          </mxGeometry>
        </mxCell>
        <mxCell id="lR8zC1la9WT5cy4ewVJO-19" value="" style="endArrow=classic;html=1;rounded=0;entryX=0.5;entryY=0;entryDx=0;entryDy=0;" edge="1" parent="1" target="lR8zC1la9WT5cy4ewVJO-12">
          <mxGeometry width="50" height="50" relative="1" as="geometry">
            <mxPoint x="550" y="-400" as="sourcePoint" />
            <mxPoint x="125" y="-570" as="targetPoint" />
            <Array as="points">
              <mxPoint x="585" y="-400" />
              <mxPoint x="625" y="-400" />
              <mxPoint x="645" y="-400" />
            </Array>
          </mxGeometry>
        </mxCell>
        <mxCell id="lR8zC1la9WT5cy4ewVJO-20" value="" style="endArrow=classic;html=1;rounded=0;exitX=0.5;exitY=1;exitDx=0;exitDy=0;" edge="1" parent="1" source="9h0jhmqFwY3-lsfX3baY-59">
          <mxGeometry width="50" height="50" relative="1" as="geometry">
            <mxPoint x="405" y="-210" as="sourcePoint" />
            <mxPoint x="550" y="-170" as="targetPoint" />
            <Array as="points">
              <mxPoint x="450" y="-230" />
              <mxPoint x="480" y="-230" />
              <mxPoint x="550" y="-230" />
            </Array>
          </mxGeometry>
        </mxCell>
        <mxCell id="lR8zC1la9WT5cy4ewVJO-22" value="" style="endArrow=classic;html=1;rounded=0;exitX=0.5;exitY=1;exitDx=0;exitDy=0;" edge="1" parent="1" source="lR8zC1la9WT5cy4ewVJO-11">
          <mxGeometry width="50" height="50" relative="1" as="geometry">
            <mxPoint x="485" y="-170" as="sourcePoint" />
            <mxPoint x="550" y="-170" as="targetPoint" />
            <Array as="points">
              <mxPoint x="645" y="-230" />
              <mxPoint x="550" y="-230" />
            </Array>
          </mxGeometry>
        </mxCell>
        <mxCell id="lR8zC1la9WT5cy4ewVJO-28" value="" style="endArrow=none;html=1;rounded=0;entryX=1;entryY=0.5;entryDx=0;entryDy=0;" edge="1" parent="1" target="lR8zC1la9WT5cy4ewVJO-12">
          <mxGeometry width="50" height="50" relative="1" as="geometry">
            <mxPoint x="550" y="-200" as="sourcePoint" />
            <mxPoint x="450" y="-320" as="targetPoint" />
            <Array as="points">
              <mxPoint x="780" y="-200" />
              <mxPoint x="780" y="-340" />
            </Array>
          </mxGeometry>
        </mxCell>
        <mxCell id="lR8zC1la9WT5cy4ewVJO-29" value="Copy file to destination folder" style="rounded=1;whiteSpace=wrap;html=1;arcSize=40;fontColor=#000000;fillColor=#ffffff;strokeColor=#000000;" vertex="1" parent="1">
          <mxGeometry x="720" y="-320" width="120" height="40" as="geometry" />
        </mxCell>
        <mxCell id="lR8zC1la9WT5cy4ewVJO-32" value="&lt;font style=&quot;font-size: 10px;&quot;&gt;yes&lt;/font&gt;" style="text;html=1;strokeColor=none;fillColor=none;align=center;verticalAlign=middle;whiteSpace=wrap;rounded=0;" vertex="1" parent="1">
          <mxGeometry x="470" y="-500" width="30" height="20" as="geometry" />
        </mxCell>
        <mxCell id="lR8zC1la9WT5cy4ewVJO-33" value="&lt;font style=&quot;font-size: 10px;&quot;&gt;yes&lt;/font&gt;" style="text;html=1;strokeColor=none;fillColor=none;align=center;verticalAlign=middle;whiteSpace=wrap;rounded=0;" vertex="1" parent="1">
          <mxGeometry x="650" y="-310" width="30" height="20" as="geometry" />
        </mxCell>
        <mxCell id="lR8zC1la9WT5cy4ewVJO-34" value="&lt;font style=&quot;font-size: 10px;&quot;&gt;no&lt;/font&gt;" style="text;html=1;strokeColor=none;fillColor=none;align=center;verticalAlign=middle;whiteSpace=wrap;rounded=0;" vertex="1" parent="1">
          <mxGeometry x="707.5" y="-360" width="30" height="20" as="geometry" />
        </mxCell>
      </root>
    </mxGraphModel>
  </diagram>
</mxfile>
